<svg xmlns="http://www.w3.org/2000/svg" xmlns:xlink="http://www.w3.org/1999/xlink" width="100" zoomAndPan="magnify" viewBox="0 0 75 74.999997" height="100" preserveAspectRatio="xMidYMid meet" version="1.0"><defs><clipPath id="849505a7c3"><path d="M 16.953125 16.597656 L 64.203125 16.597656 L 64.203125 67 L 16.953125 67 Z M 16.953125 16.597656 " clip-rule="nonzero"/></clipPath><clipPath id="6d4a0c15cf"><path d="M 10.519531 7.367188 L 57.769531 7.367188 L 57.769531 62.867188 L 10.519531 62.867188 Z M 10.519531 7.367188 " clip-rule="nonzero"/></clipPath><clipPath id="abd99a2f4a"><path d="M 13.710938 16.597656 L 54.960938 16.597656 L 54.960938 57.847656 L 13.710938 57.847656 Z M 13.710938 16.597656 " clip-rule="nonzero"/></clipPath></defs><rect x="-7.5" width="90" fill="#ffffff" y="-7.5" height="89.999996" fill-opacity="1"/><rect x="-7.5" width="90" fill="#ffffff" y="-7.5" height="89.999996" fill-opacity="1"/><g clip-path="url(#849505a7c3)"><path fill="#000000" d="M 49.777344 -32.207031 L 64.203125 -32.207031 L 64.203125 -13.734375 L 49.777344 -13.734375 L 49.777344 0.765625 L 31.378906 0.765625 L 31.378906 -13.746094 L 16.953125 -13.746094 L 16.953125 -32.222656 L 31.390625 -32.222656 L 31.390625 -46.707031 L 49.789062 -46.707031 Z M 64.203125 -98.15625 L 64.203125 -79.683594 L 49.777344 -79.683594 L 49.777344 -65.207031 L 31.378906 -65.207031 L 31.378906 -79.695312 L 16.953125 -79.695312 L 16.953125 -98.171875 L 31.390625 -98.171875 L 31.390625 -112.65625 L 49.789062 -112.65625 L 49.789062 -98.15625 Z M 62.53125 -96.476562 L 48.105469 -96.476562 L 48.105469 -110.976562 L 33.050781 -110.976562 L 33.050781 -96.476562 L 18.625 -96.476562 L 18.625 -81.363281 L 33.0625 -81.363281 L 33.0625 -66.886719 L 48.117188 -66.886719 L 48.117188 -81.375 L 62.53125 -81.375 Z M 49.777344 33.746094 L 64.203125 33.746094 L 64.203125 52.21875 L 49.777344 52.21875 L 49.777344 66.71875 L 31.378906 66.71875 L 31.378906 52.203125 L 16.953125 52.203125 L 16.953125 33.726562 L 31.390625 33.726562 L 31.390625 19.242188 L 49.789062 19.242188 Z M 48.105469 35.425781 L 48.105469 20.921875 L 33.050781 20.921875 L 33.050781 35.425781 L 18.625 35.425781 L 18.625 50.539062 L 33.0625 50.539062 L 33.0625 65.039062 L 48.117188 65.039062 L 48.117188 50.523438 L 62.53125 50.523438 L 62.53125 35.40625 Z M 48.105469 35.425781 " fill-opacity="1" fill-rule="nonzero"/></g><g clip-path="url(#6d4a0c15cf)"><path fill="#ff3131" d="M 43.53125 28.15625 L 58.039062 28.15625 L 58.039062 46.65625 L 43.53125 46.65625 L 43.53125 61.179688 L 25.027344 61.179688 L 25.027344 46.644531 L 10.519531 46.644531 L 10.519531 28.140625 L 25.042969 28.140625 L 25.042969 13.632812 L 43.546875 13.632812 Z M 58.039062 -37.894531 L 58.039062 -19.390625 L 43.53125 -19.390625 L 43.53125 -4.894531 L 25.027344 -4.894531 L 25.027344 -19.402344 L 10.519531 -19.402344 L 10.519531 -37.90625 L 25.042969 -37.90625 L 25.042969 -52.414062 L 43.546875 -52.414062 L 43.546875 -37.894531 Z M 56.359375 -36.210938 L 41.851562 -36.210938 L 41.851562 -50.730469 L 26.710938 -50.730469 L 26.710938 -36.210938 L 12.203125 -36.210938 L 12.203125 -21.074219 L 26.722656 -21.074219 L 26.722656 -6.578125 L 41.863281 -6.578125 L 41.863281 -21.085938 L 56.359375 -21.085938 Z M 43.53125 94.207031 L 58.039062 94.207031 L 58.039062 112.710938 L 43.53125 112.710938 L 43.53125 127.230469 L 25.027344 127.230469 L 25.027344 112.691406 L 10.519531 112.691406 L 10.519531 94.191406 L 25.042969 94.191406 L 25.042969 79.679688 L 43.546875 79.679688 Z M 41.851562 95.886719 L 41.851562 81.363281 L 26.710938 81.363281 L 26.710938 95.886719 L 12.203125 95.886719 L 12.203125 111.027344 L 26.722656 111.027344 L 26.722656 125.546875 L 41.863281 125.546875 L 41.863281 111.011719 L 56.359375 111.011719 L 56.359375 95.871094 Z M 41.851562 95.886719 " fill-opacity="1" fill-rule="nonzero"/></g><g clip-path="url(#abd99a2f4a)"><path fill="#ffffff" d="M 34.277344 57.730469 C 33.917969 57.730469 33.628906 57.4375 33.628906 57.078125 L 33.628906 37.816406 L 14.363281 37.816406 C 14.003906 37.816406 13.710938 37.523438 13.710938 37.164062 C 13.710938 36.804688 14.003906 36.511719 14.363281 36.511719 L 33.628906 36.511719 L 33.628906 17.25 C 33.628906 16.890625 33.917969 16.597656 34.277344 16.597656 C 34.640625 16.597656 34.929688 16.890625 34.929688 17.25 L 34.929688 36.511719 L 54.191406 36.511719 C 54.554688 36.511719 54.84375 36.804688 54.84375 37.164062 C 54.84375 37.523438 54.554688 37.816406 54.191406 37.816406 L 34.929688 37.816406 L 34.929688 57.078125 C 34.929688 57.4375 34.640625 57.730469 34.277344 57.730469 Z M 34.277344 57.730469 " fill-opacity="1" fill-rule="nonzero"/></g></svg>