<svg xmlns="http://www.w3.org/2000/svg" xmlns:xlink="http://www.w3.org/1999/xlink" width="400" zoomAndPan="magnify" viewBox="0 0 300 74.999997" height="100" preserveAspectRatio="xMidYMid meet" version="1.0"><defs><g/><clipPath id="827503de56"><path d="M 14.863281 10.570312 L 69.613281 10.570312 L 69.613281 68.636719 L 14.863281 68.636719 Z M 14.863281 10.570312 " clip-rule="nonzero"/></clipPath><clipPath id="95e1946161"><path d="M 7.5 0 L 62 0 L 62 63.75 L 7.5 63.75 Z M 7.5 0 " clip-rule="nonzero"/></clipPath><clipPath id="ad8aef9396"><path d="M 11.152344 10.570312 L 58.402344 10.570312 L 58.402344 57.820312 L 11.152344 57.820312 Z M 11.152344 10.570312 " clip-rule="nonzero"/></clipPath></defs><rect x="-30" width="360" fill="#ffffff" y="-7.5" height="89.999996" fill-opacity="1"/><rect x="-30" width="360" fill="#ffffff" y="-7.5" height="89.999996" fill-opacity="1"/><g clip-path="url(#827503de56)"><path fill="#000000" d="M 52.898438 -45.078125 L 69.613281 -45.078125 L 69.613281 -23.910156 L 52.898438 -23.910156 L 52.898438 -7.296875 L 31.578125 -7.296875 L 31.578125 -23.921875 L 14.863281 -23.921875 L 14.863281 -45.09375 L 31.59375 -45.09375 L 31.59375 -61.691406 L 52.910156 -61.691406 Z M 69.613281 -120.644531 L 69.613281 -99.476562 L 52.898438 -99.476562 L 52.898438 -82.890625 L 31.578125 -82.890625 L 31.578125 -99.488281 L 14.863281 -99.488281 L 14.863281 -120.660156 L 31.59375 -120.660156 L 31.59375 -137.257812 L 52.910156 -137.257812 L 52.910156 -120.644531 Z M 67.675781 -118.71875 L 50.957031 -118.71875 L 50.957031 -135.332031 L 33.515625 -135.332031 L 33.515625 -118.71875 L 16.800781 -118.71875 L 16.800781 -101.398438 L 33.53125 -101.398438 L 33.53125 -84.816406 L 50.972656 -84.816406 L 50.972656 -101.414062 L 67.675781 -101.414062 Z M 52.898438 30.492188 L 69.613281 30.492188 L 69.613281 51.660156 L 52.898438 51.660156 L 52.898438 68.273438 L 31.578125 68.273438 L 31.578125 51.640625 L 14.863281 51.640625 L 14.863281 30.472656 L 31.59375 30.472656 L 31.59375 13.875 L 52.910156 13.875 Z M 50.957031 32.417969 L 50.957031 15.796875 L 33.515625 15.796875 L 33.515625 32.417969 L 16.800781 32.417969 L 16.800781 49.738281 L 33.53125 49.738281 L 33.53125 66.351562 L 50.972656 66.351562 L 50.972656 49.71875 L 67.675781 49.71875 L 67.675781 32.398438 Z M 50.957031 32.417969 " fill-opacity="1" fill-rule="nonzero"/></g><g clip-path="url(#95e1946161)"><path fill="#ff3131" d="M 45.289062 23.800781 L 61.898438 23.800781 L 61.898438 44.980469 L 45.289062 44.980469 L 45.289062 61.605469 L 24.109375 61.605469 L 24.109375 44.964844 L 7.5 44.964844 L 7.5 23.785156 L 24.121094 23.785156 L 24.121094 7.175781 L 45.304688 7.175781 Z M 61.898438 -51.808594 L 61.898438 -30.628906 L 45.289062 -30.628906 L 45.289062 -14.035156 L 24.109375 -14.035156 L 24.109375 -30.640625 L 7.5 -30.640625 L 7.5 -51.824219 L 24.121094 -51.824219 L 24.121094 -68.433594 L 45.304688 -68.433594 L 45.304688 -51.808594 Z M 59.972656 -49.882812 L 43.363281 -49.882812 L 43.363281 -66.507812 L 26.035156 -66.507812 L 26.035156 -49.882812 L 9.425781 -49.882812 L 9.425781 -32.554688 L 26.046875 -32.554688 L 26.046875 -15.960938 L 43.378906 -15.960938 L 43.378906 -32.566406 L 59.972656 -32.566406 Z M 45.289062 99.414062 L 61.898438 99.414062 L 61.898438 120.59375 L 45.289062 120.59375 L 45.289062 137.21875 L 24.109375 137.21875 L 24.109375 120.574219 L 7.5 120.574219 L 7.5 99.394531 L 24.121094 99.394531 L 24.121094 82.785156 L 45.304688 82.785156 Z M 43.363281 101.339844 L 43.363281 84.710938 L 26.035156 84.710938 L 26.035156 101.339844 L 9.425781 101.339844 L 9.425781 118.667969 L 26.046875 118.667969 L 26.046875 135.292969 L 43.378906 135.292969 L 43.378906 118.648438 L 59.972656 118.648438 L 59.972656 101.320312 Z M 43.363281 101.339844 " fill-opacity="1" fill-rule="nonzero"/></g><g clip-path="url(#ad8aef9396)"><path fill="#ffffff" d="M 34.703125 57.667969 C 34.289062 57.667969 33.957031 57.332031 33.957031 56.917969 L 33.957031 34.863281 L 11.898438 34.863281 C 11.488281 34.863281 11.152344 34.53125 11.152344 34.117188 C 11.152344 33.707031 11.488281 33.371094 11.898438 33.371094 L 33.957031 33.371094 L 33.957031 11.316406 C 33.957031 10.902344 34.289062 10.570312 34.703125 10.570312 C 35.113281 10.570312 35.449219 10.902344 35.449219 11.316406 L 35.449219 33.371094 L 57.503906 33.371094 C 57.917969 33.371094 58.25 33.707031 58.25 34.117188 C 58.25 34.53125 57.917969 34.863281 57.503906 34.863281 L 35.449219 34.863281 L 35.449219 56.917969 C 35.449219 57.332031 35.113281 57.667969 34.703125 57.667969 Z M 34.703125 57.667969 " fill-opacity="1" fill-rule="nonzero"/></g><g fill="#000000" fill-opacity="1"><g transform="translate(77.369875, 50.987679)"><g><path d="M 29.640625 -23.765625 L 29.640625 0 L 23.03125 0 L 23.03125 -13.109375 L 18.546875 0 L 13.015625 0 L 8.5 -13.21875 L 8.5 0 L 1.890625 0 L 1.890625 -23.765625 L 9.875 -23.765625 L 15.84375 -8.328125 L 21.6875 -23.765625 Z M 29.640625 -23.765625 "/></g></g></g><g fill="#000000" fill-opacity="1"><g transform="translate(108.893241, 50.987679)"><g><path d="M 8.5 -18.484375 L 8.5 -14.59375 L 16.078125 -14.59375 L 16.078125 -9.578125 L 8.5 -9.578125 L 8.5 -5.296875 L 17.09375 -5.296875 L 17.09375 0 L 1.890625 0 L 1.890625 -23.765625 L 17.09375 -23.765625 L 17.09375 -18.484375 Z M 8.5 -18.484375 "/></g></g></g><g fill="#000000" fill-opacity="1"><g transform="translate(127.36897, 50.987679)"><g><path d="M 11.296875 -23.765625 C 13.785156 -23.765625 15.96875 -23.265625 17.84375 -22.265625 C 19.726562 -21.265625 21.175781 -19.863281 22.1875 -18.0625 C 23.195312 -16.269531 23.703125 -14.21875 23.703125 -11.90625 C 23.703125 -9.613281 23.191406 -7.566406 22.171875 -5.765625 C 21.148438 -3.960938 19.695312 -2.550781 17.8125 -1.53125 C 15.9375 -0.507812 13.765625 0 11.296875 0 L 1.890625 0 L 1.890625 -23.765625 Z M 10.796875 -5.828125 C 12.722656 -5.828125 14.238281 -6.351562 15.34375 -7.40625 C 16.445312 -8.46875 17 -9.96875 17 -11.90625 C 17 -13.863281 16.445312 -15.375 15.34375 -16.4375 C 14.238281 -17.507812 12.722656 -18.046875 10.796875 -18.046875 L 8.5 -18.046875 L 8.5 -5.828125 Z M 10.796875 -5.828125 "/></g></g></g><g fill="#000000" fill-opacity="1"><g transform="translate(152.149364, 50.987679)"><g><path d="M 8.5 -23.765625 L 8.5 0 L 1.890625 0 L 1.890625 -23.765625 Z M 8.5 -23.765625 "/></g></g></g><g fill="#000000" fill-opacity="1"><g transform="translate(162.533526, 50.987679)"><g><path d="M 25.015625 -23.765625 L 16.828125 0 L 8.359375 0 L 0.140625 -23.765625 L 7.21875 -23.765625 L 12.609375 -6.609375 L 17.96875 -23.765625 Z M 25.015625 -23.765625 "/></g></g></g><g fill="#000000" fill-opacity="1"><g transform="translate(187.718502, 50.987679)"><g><path d="M 8.5 -18.484375 L 8.5 -14.59375 L 16.078125 -14.59375 L 16.078125 -9.578125 L 8.5 -9.578125 L 8.5 -5.296875 L 17.09375 -5.296875 L 17.09375 0 L 1.890625 0 L 1.890625 -23.765625 L 17.09375 -23.765625 L 17.09375 -18.484375 Z M 8.5 -18.484375 "/></g></g></g><g fill="#000000" fill-opacity="1"><g transform="translate(206.194231, 50.987679)"><g><path d="M 13.921875 0 L 9.203125 -8.765625 L 8.5 -8.765625 L 8.5 0 L 1.890625 0 L 1.890625 -23.765625 L 12.3125 -23.765625 C 14.21875 -23.765625 15.832031 -23.429688 17.15625 -22.765625 C 18.488281 -22.109375 19.488281 -21.203125 20.15625 -20.046875 C 20.832031 -18.890625 21.171875 -17.59375 21.171875 -16.15625 C 21.171875 -14.53125 20.726562 -13.101562 19.84375 -11.875 C 18.957031 -10.65625 17.660156 -9.785156 15.953125 -9.265625 L 21.3125 0 Z M 8.5 -13.28125 L 11.765625 -13.28125 C 12.660156 -13.28125 13.332031 -13.492188 13.78125 -13.921875 C 14.238281 -14.347656 14.46875 -14.96875 14.46875 -15.78125 C 14.46875 -16.539062 14.234375 -17.140625 13.765625 -17.578125 C 13.304688 -18.015625 12.640625 -18.234375 11.765625 -18.234375 L 8.5 -18.234375 Z M 8.5 -13.28125 "/></g></g></g><g fill="#000000" fill-opacity="1"><g transform="translate(228.479733, 50.987679)"><g><path d="M 10.859375 0.234375 C 8.085938 0.234375 5.8125 -0.421875 4.03125 -1.734375 C 2.257812 -3.046875 1.3125 -4.929688 1.1875 -7.390625 L 8.234375 -7.390625 C 8.296875 -6.554688 8.539062 -5.945312 8.96875 -5.5625 C 9.394531 -5.175781 9.945312 -4.984375 10.625 -4.984375 C 11.226562 -4.984375 11.726562 -5.132812 12.125 -5.4375 C 12.519531 -5.75 12.71875 -6.171875 12.71875 -6.703125 C 12.71875 -7.398438 12.390625 -7.941406 11.734375 -8.328125 C 11.078125 -8.710938 10.019531 -9.140625 8.5625 -9.609375 C 7.007812 -10.128906 5.753906 -10.628906 4.796875 -11.109375 C 3.847656 -11.585938 3.019531 -12.296875 2.3125 -13.234375 C 1.601562 -14.171875 1.25 -15.390625 1.25 -16.890625 C 1.25 -18.421875 1.628906 -19.726562 2.390625 -20.8125 C 3.160156 -21.90625 4.21875 -22.734375 5.5625 -23.296875 C 6.914062 -23.859375 8.445312 -24.140625 10.15625 -24.140625 C 12.914062 -24.140625 15.117188 -23.492188 16.765625 -22.203125 C 18.421875 -20.910156 19.304688 -19.097656 19.421875 -16.765625 L 12.234375 -16.765625 C 12.210938 -17.484375 11.992188 -18.019531 11.578125 -18.375 C 11.160156 -18.738281 10.628906 -18.921875 9.984375 -18.921875 C 9.484375 -18.921875 9.078125 -18.773438 8.765625 -18.484375 C 8.453125 -18.191406 8.296875 -17.773438 8.296875 -17.234375 C 8.296875 -16.785156 8.46875 -16.394531 8.8125 -16.0625 C 9.164062 -15.738281 9.597656 -15.457031 10.109375 -15.21875 C 10.628906 -14.988281 11.394531 -14.691406 12.40625 -14.328125 C 13.914062 -13.816406 15.15625 -13.304688 16.125 -12.796875 C 17.101562 -12.285156 17.945312 -11.578125 18.65625 -10.671875 C 19.363281 -9.765625 19.71875 -8.613281 19.71875 -7.21875 C 19.71875 -5.800781 19.363281 -4.53125 18.65625 -3.40625 C 17.945312 -2.28125 16.925781 -1.390625 15.59375 -0.734375 C 14.257812 -0.0859375 12.679688 0.234375 10.859375 0.234375 Z M 10.859375 0.234375 "/></g></g></g><g fill="#000000" fill-opacity="1"><g transform="translate(249.382926, 50.987679)"><g><path d="M 8.5 -18.484375 L 8.5 -14.59375 L 16.078125 -14.59375 L 16.078125 -9.578125 L 8.5 -9.578125 L 8.5 -5.296875 L 17.09375 -5.296875 L 17.09375 0 L 1.890625 0 L 1.890625 -23.765625 L 17.09375 -23.765625 L 17.09375 -18.484375 Z M 8.5 -18.484375 "/></g></g></g></svg>